<mxfile host="app.diagrams.net" agent="Mozilla/5.0 (Macintosh; Intel Mac OS X 10_15_7) AppleWebKit/537.36 (KHTML, like Gecko) Chrome/126.0.0.0 YaBrowser/24.7.0.0 Safari/537.36" version="24.7.16">
  <diagram id="R2lEEEUBdFMjLlhIrx00" name="Page-1">
    <mxGraphModel dx="636" dy="485" grid="1" gridSize="10" guides="1" tooltips="1" connect="1" arrows="1" fold="1" page="1" pageScale="1" pageWidth="850" pageHeight="1100" math="0" shadow="0" extFonts="Permanent Marker^https://fonts.googleapis.com/css?family=Permanent+Marker">
      <root>
        <mxCell id="0" />
        <mxCell id="1" parent="0" />
        <mxCell id="WERzMzZZoHiGwdidvYkT-2" value="Student" style="swimlane;whiteSpace=wrap;html=1;" vertex="1" parent="1">
          <mxGeometry x="130" y="120" width="240" height="120" as="geometry" />
        </mxCell>
        <mxCell id="WERzMzZZoHiGwdidvYkT-4" value="&lt;u&gt;student_id&lt;/u&gt;" style="text;html=1;align=center;verticalAlign=middle;whiteSpace=wrap;rounded=0;fontSize=13;" vertex="1" parent="WERzMzZZoHiGwdidvYkT-2">
          <mxGeometry x="10" y="30" width="60" height="30" as="geometry" />
        </mxCell>
        <mxCell id="WERzMzZZoHiGwdidvYkT-5" value="last_name" style="text;html=1;align=center;verticalAlign=middle;whiteSpace=wrap;rounded=0;fontSize=13;" vertex="1" parent="WERzMzZZoHiGwdidvYkT-2">
          <mxGeometry x="10" y="60" width="60" height="30" as="geometry" />
        </mxCell>
        <mxCell id="WERzMzZZoHiGwdidvYkT-6" value="first_name" style="text;html=1;align=center;verticalAlign=middle;whiteSpace=wrap;rounded=0;fontSize=13;" vertex="1" parent="WERzMzZZoHiGwdidvYkT-2">
          <mxGeometry x="10" y="90" width="60" height="30" as="geometry" />
        </mxCell>
        <mxCell id="WERzMzZZoHiGwdidvYkT-9" value="name" style="text;html=1;align=center;verticalAlign=middle;whiteSpace=wrap;rounded=0;fontSize=13;" vertex="1" parent="WERzMzZZoHiGwdidvYkT-2">
          <mxGeometry x="90" y="60" width="60" height="30" as="geometry" />
        </mxCell>
        <mxCell id="WERzMzZZoHiGwdidvYkT-10" value="name" style="text;html=1;align=center;verticalAlign=middle;whiteSpace=wrap;rounded=0;fontSize=13;" vertex="1" parent="WERzMzZZoHiGwdidvYkT-2">
          <mxGeometry x="90" y="90" width="60" height="30" as="geometry" />
        </mxCell>
        <mxCell id="WERzMzZZoHiGwdidvYkT-11" value="id" style="text;html=1;align=center;verticalAlign=middle;whiteSpace=wrap;rounded=0;fontSize=13;" vertex="1" parent="WERzMzZZoHiGwdidvYkT-2">
          <mxGeometry x="90" y="30" width="60" height="30" as="geometry" />
        </mxCell>
        <mxCell id="WERzMzZZoHiGwdidvYkT-12" value="PK, M" style="text;html=1;align=center;verticalAlign=middle;whiteSpace=wrap;rounded=0;fontSize=13;" vertex="1" parent="WERzMzZZoHiGwdidvYkT-2">
          <mxGeometry x="160" y="30" width="60" height="30" as="geometry" />
        </mxCell>
        <mxCell id="WERzMzZZoHiGwdidvYkT-14" value="M" style="text;html=1;align=center;verticalAlign=middle;resizable=0;points=[];autosize=1;strokeColor=none;fillColor=none;" vertex="1" parent="WERzMzZZoHiGwdidvYkT-2">
          <mxGeometry x="175" y="90" width="30" height="30" as="geometry" />
        </mxCell>
        <mxCell id="WERzMzZZoHiGwdidvYkT-13" value="M" style="text;html=1;align=center;verticalAlign=middle;resizable=0;points=[];autosize=1;strokeColor=none;fillColor=none;" vertex="1" parent="WERzMzZZoHiGwdidvYkT-2">
          <mxGeometry x="175" y="60" width="30" height="30" as="geometry" />
        </mxCell>
        <mxCell id="WERzMzZZoHiGwdidvYkT-16" value="" style="edgeStyle=entityRelationEdgeStyle;fontSize=12;html=1;endArrow=ERoneToMany;rounded=0;" edge="1" parent="1">
          <mxGeometry width="100" height="100" relative="1" as="geometry">
            <mxPoint x="290" y="430" as="sourcePoint" />
            <mxPoint x="390" y="330" as="targetPoint" />
          </mxGeometry>
        </mxCell>
      </root>
    </mxGraphModel>
  </diagram>
</mxfile>
